solid RotationGearDummy
facet normal 0.0 0.0 -1.0
  outer loop
    vertex -5.938928651285596 0.8538890296397113 0.0
    vertex -5.977990385176149 -0.513450050873035 0.0
    vertex -5.997553156969135 0.17133630476217956 0.0
  endloop
endfacet
facet normal 0.0 0.0 -1.0
  outer loop
    vertex -5.977990385176149 -0.513450050873035 0.0
    vertex -5.938928651285596 0.8538890296397113 0.0
    vertex -5.880495366554362 -1.1915427998744679 0.0
  endloop
endfacet
facet normal 0.0 0.0 -1.0
  outer loop
    vertex -5.880495366554362 -1.1915427998744679 0.0
    vertex -5.938928651285596 0.8538890296397113 0.0
    vertex -5.802881128211742 1.5253100051609259 0.0
  endloop
endfacet
facet normal 0.0 0.0 -1.0
  outer loop
    vertex -5.880495366554362 -1.1915427998744679 0.0
    vertex -5.802881128211742 1.5253100051609259 0.0
    vertex -5.706339097770922 -1.8541019662496832 0.0
  endloop
endfacet
facet normal 0.0 0.0 -1.0
  outer loop
    vertex -5.706339097770922 -1.8541019662496832 0.0
    vertex -5.802881128211742 1.5253100051609259 0.0
    vertex -5.5911841752687135 2.1768462321038484 0.0
  endloop
endfacet
facet normal 0.0 0.0 -1.0
  outer loop
    vertex -5.706339097770922 -1.8541019662496832 0.0
    vertex -5.5911841752687135 2.1768462321038484 0.0
    vertex -5.4577919721271115 -2.492490078011316 0.0
  endloop
endfacet
facet normal 0.0 0.0 -1.0
  outer loop
    vertex -5.4577919721271115 -2.492490078011316 0.0
    vertex -5.5911841752687135 2.1768462321038484 0.0
    vertex -5.306597585986885 2.800003939354043 0.0
  endloop
endfacet
facet normal 0.0 0.0 -1.0
  outer loop
    vertex -5.4577919721271115 -2.492490078011316 0.0
    vertex -5.306597585986885 2.800003939354043 0.0
    vertex -5.138094181509536 -3.098384769833767 0.0
  endloop
endfacet
facet normal 0.0 0.0 -1.0
  outer loop
    vertex -5.138094181509536 -3.098384769833767 0.0
    vertex -5.306597585986885 2.800003939354043 0.0
    vertex -4.952831381776644 3.3866593132006146 0.0
  endloop
endfacet
facet normal 0.0 0.0 -1.0
  outer loop
    vertex -5.138094181509536 -3.098384769833767 0.0
    vertex -4.952831381776644 3.3866593132006146 0.0
    vertex -4.751413475533655 -3.663887277812624 0.0
  endloop
endfacet
facet normal 0.0 0.0 -1.0
  outer loop
    vertex -4.751413475533655 -3.663887277812624 0.0
    vertex -4.952831381776644 3.3866593132006146 0.0
    vertex -4.53449744612555 3.929164403671711 0.0
  endloop
endfacet
facet normal 0.0 0.0 -1.0
  outer loop
    vertex -4.751413475533655 -3.663887277812624 0.0
    vertex -4.53449744612555 3.929164403671711 0.0
    vertex -4.302790828553782 -4.181625411931758 0.0
  endloop
endfacet
facet normal 0.0 0.0 -1.0
  outer loop
    vertex -4.302790828553782 -4.181625411931758 0.0
    vertex -4.53449744612555 3.929164403671711 0.0
    vertex -4.057049401644115 4.42044682725843 0.0
  endloop
endfacet
facet normal 0.0 0.0 -1.0
  outer loop
    vertex -4.302790828553782 -4.181625411931758 0.0
    vertex -4.057049401644115 4.42044682725843 0.0
    vertex -3.798074722853225 -4.644849663834492 0.0
  endloop
endfacet
facet normal 0.0 0.0 -1.0
  outer loop
    vertex -3.798074722853225 -4.644849663834492 0.0
    vertex -4.057049401644115 4.42044682725843 0.0
    vertex -3.526711513754838 4.854101966249684 0.0
  endloop
endfacet
facet normal 0.0 0.0 -1.0
  outer loop
    vertex -3.798074722853225 -4.644849663834492 0.0
    vertex -3.526711513754838 4.854101966249684 0.0
    vertex -3.243844904733589 -5.047521196987084 0.0
  endloop
endfacet
facet normal 0.0 0.0 -1.0
  outer loop
    vertex -3.243844904733589 -5.047521196987084 0.0
    vertex -3.526711513754838 4.854101966249684 0.0
    vertex -2.950397547873621 5.2244764627186635 0.0
  endloop
endfacet
facet normal 0.0 0.0 -1.0
  outer loop
    vertex -3.243844904733589 -5.047521196987084 0.0
    vertex -2.950397547873621 5.2244764627186635 0.0
    vertex -3.0 3.67394039744206e-16 0.0
  endloop
endfacet
facet normal 0.0 0.0 -1.0
  outer loop
    vertex -3.0 3.67394039744206e-16 0.0
    vertex -2.950397547873621 5.2244764627186635 0.0
    vertex -2.9344428022014166 0.6237350724532792 0.0
  endloop
endfacet
facet normal 0.0 0.0 -1.0
  outer loop
    vertex -2.9344428022014166 0.6237350724532792 0.0
    vertex -2.950397547873621 5.2244764627186635 0.0
    vertex -2.3356206379043463 5.526741918689102 0.0
  endloop
endfacet
facet normal 0.0 0.0 -1.0
  outer loop
    vertex -2.9344428022014166 0.6237350724532792 0.0
    vertex -2.3356206379043463 5.526741918689102 0.0
    vertex -2.740636372927802 1.2202099292274013 0.0
  endloop
endfacet
facet normal 0.0 0.0 -1.0
  outer loop
    vertex -2.740636372927802 1.2202099292274013 0.0
    vertex -2.3356206379043463 5.526741918689102 0.0
    vertex -2.4270509831248415 1.7633557568774196 0.0
  endloop
endfacet
facet normal 0.0 0.0 -1.0
  outer loop
    vertex -2.4270509831248415 1.7633557568774196 0.0
    vertex -2.3356206379043463 5.526741918689102 0.0
    vertex -2.0073918190765734 2.2294344764321834 0.0
  endloop
endfacet
facet normal 0.0 0.0 -1.0
  outer loop
    vertex -2.0073918190765734 2.2294344764321834 0.0
    vertex -2.3356206379043463 5.526741918689102 0.0
    vertex -1.6903953410485766 5.756957841686984 0.0
  endloop
endfacet
facet normal 0.0 0.0 -1.0
  outer loop
    vertex -2.0073918190765734 2.2294344764321834 0.0
    vertex -1.6903953410485766 5.756957841686984 0.0
    vertex -1.4999999999999991 2.598076211353316 0.0
  endloop
endfacet
facet normal 0.0 0.0 -1.0
  outer loop
    vertex -1.4999999999999991 2.598076211353316 0.0
    vertex -1.6903953410485766 5.756957841686984 0.0
    vertex -1.02313315579574 5.912123015086158 0.0
  endloop
endfacet
facet normal 0.0 0.0 -1.0
  outer loop
    vertex -1.4999999999999991 2.598076211353316 0.0
    vertex -1.02313315579574 5.912123015086158 0.0
    vertex -0.9270509831248419 2.853169548885461 0.0
  endloop
endfacet
facet normal 0.0 0.0 -1.0
  outer loop
    vertex -0.9270509831248419 2.853169548885461 0.0
    vertex -1.02313315579574 5.912123015086158 0.0
    vertex -0.3425328651766064 5.990214623556813 0.0
  endloop
endfacet
facet normal 0.0 0.0 -1.0
  outer loop
    vertex -0.9270509831248419 2.853169548885461 0.0
    vertex -0.3425328651766064 5.990214623556813 0.0
    vertex -0.31358538980295997 2.9835656861048205 0.0
  endloop
endfacet
facet normal 0.0 0.0 -1.0
  outer loop
    vertex -0.31358538980295997 2.9835656861048205 0.0
    vertex -0.3425328651766064 5.990214623556813 0.0
    vertex 0.3425328651766106 5.990214623556813 0.0
  endloop
endfacet
facet normal 0.0 0.0 -1.0
  outer loop
    vertex -0.31358538980295997 2.9835656861048205 0.0
    vertex 0.3425328651766106 5.990214623556813 0.0
    vertex 0.313585389802961 2.98356568610482 0.0
  endloop
endfacet
facet normal 0.0 0.0 -1.0
  outer loop
    vertex 0.313585389802961 2.98356568610482 0.0
    vertex 0.3425328651766106 5.990214623556813 0.0
    vertex 0.9270509831248422 2.8531695488854605 0.0
  endloop
endfacet
facet normal 0.0 0.0 -1.0
  outer loop
    vertex 0.9270509831248422 2.8531695488854605 0.0
    vertex 0.3425328651766106 5.990214623556813 0.0
    vertex 1.0231331557957437 5.9121230150861575 0.0
  endloop
endfacet
facet normal 0.0 0.0 -1.0
  outer loop
    vertex 0.9270509831248422 2.8531695488854605 0.0
    vertex 1.0231331557957437 5.9121230150861575 0.0
    vertex 1.5000000000000002 2.5980762113533156 0.0
  endloop
endfacet
facet normal 0.0 0.0 -1.0
  outer loop
    vertex 1.5000000000000002 2.5980762113533156 0.0
    vertex 1.0231331557957437 5.9121230150861575 0.0
    vertex 1.6903953410485806 5.756957841686983 0.0
  endloop
endfacet
facet normal 0.0 0.0 -1.0
  outer loop
    vertex 1.5000000000000002 2.5980762113533156 0.0
    vertex 1.6903953410485806 5.756957841686983 0.0
    vertex 2.0073918190765747 2.2294344764321825 0.0
  endloop
endfacet
facet normal 0.0 0.0 -1.0
  outer loop
    vertex 2.0073918190765747 2.2294344764321825 0.0
    vertex 1.6903953410485806 5.756957841686983 0.0
    vertex 2.33562063790435 5.526741918689099 0.0
  endloop
endfacet
facet normal 0.0 0.0 -1.0
  outer loop
    vertex 2.0073918190765747 2.2294344764321825 0.0
    vertex 2.33562063790435 5.526741918689099 0.0
    vertex 2.427050983124842 1.7633557568774194 0.0
  endloop
endfacet
facet normal 0.0 0.0 -1.0
  outer loop
    vertex 2.427050983124842 1.7633557568774194 0.0
    vertex 2.33562063790435 5.526741918689099 0.0
    vertex 2.950397547873625 5.224476462718662 0.0
  endloop
endfacet
facet normal 0.0 0.0 -1.0
  outer loop
    vertex 2.427050983124842 1.7633557568774194 0.0
    vertex 2.950397547873625 5.224476462718662 0.0
    vertex 2.7406363729278023 1.2202099292274005 0.0
  endloop
endfacet
facet normal 0.0 0.0 -1.0
  outer loop
    vertex 2.7406363729278023 1.2202099292274005 0.0
    vertex 2.950397547873625 5.224476462718662 0.0
    vertex 2.9344428022014166 0.623735072453278 0.0
  endloop
endfacet
facet normal 0.0 0.0 -1.0
  outer loop
    vertex 2.9344428022014166 0.623735072453278 0.0
    vertex 2.950397547873625 5.224476462718662 0.0
    vertex 3.0 0.0 0.0
  endloop
endfacet
facet normal 0.0 0.0 -1.0
  outer loop
    vertex 3.0 0.0 0.0
    vertex 2.950397547873625 5.224476462718662 0.0
    vertex 3.5267115137548393 4.854101966249683 0.0
  endloop
endfacet
facet normal 0.0 0.0 -1.0
  outer loop
    vertex 3.0 0.0 0.0
    vertex 3.5267115137548393 4.854101966249683 0.0
    vertex 3.243844904733586 -5.047521196987087 0.0
  endloop
endfacet
facet normal 0.0 0.0 -1.0
  outer loop
    vertex 3.243844904733586 -5.047521196987087 0.0
    vertex 3.5267115137548393 4.854101966249683 0.0
    vertex 3.798074722853223 -4.644849663834495 0.0
  endloop
endfacet
facet normal 0.0 0.0 -1.0
  outer loop
    vertex 3.798074722853223 -4.644849663834495 0.0
    vertex 3.5267115137548393 4.854101966249683 0.0
    vertex 4.057049401644118 4.420446827258427 0.0
  endloop
endfacet
facet normal 0.0 0.0 -1.0
  outer loop
    vertex 3.798074722853223 -4.644849663834495 0.0
    vertex 4.057049401644118 4.420446827258427 0.0
    vertex 4.302790828553781 -4.18162541193176 0.0
  endloop
endfacet
facet normal 0.0 0.0 -1.0
  outer loop
    vertex 4.302790828553781 -4.18162541193176 0.0
    vertex 4.057049401644118 4.420446827258427 0.0
    vertex 4.53449744612555 3.9291644036717095 0.0
  endloop
endfacet
facet normal 0.0 0.0 -1.0
  outer loop
    vertex 4.302790828553781 -4.18162541193176 0.0
    vertex 4.53449744612555 3.9291644036717095 0.0
    vertex 4.751413475533651 -3.663887277812629 0.0
  endloop
endfacet
facet normal 0.0 0.0 -1.0
  outer loop
    vertex 4.751413475533651 -3.663887277812629 0.0
    vertex 4.53449744612555 3.9291644036717095 0.0
    vertex 4.952831381776646 3.3866593132006133 0.0
  endloop
endfacet
facet normal 0.0 0.0 -1.0
  outer loop
    vertex 4.751413475533651 -3.663887277812629 0.0
    vertex 4.952831381776646 3.3866593132006133 0.0
    vertex 5.138094181509534 -3.0983847698337716 0.0
  endloop
endfacet
facet normal 0.0 0.0 -1.0
  outer loop
    vertex 5.138094181509534 -3.0983847698337716 0.0
    vertex 4.952831381776646 3.3866593132006133 0.0
    vertex 5.306597585986886 2.8000039393540423 0.0
  endloop
endfacet
facet normal 0.0 0.0 -1.0
  outer loop
    vertex 5.138094181509534 -3.0983847698337716 0.0
    vertex 5.306597585986886 2.8000039393540423 0.0
    vertex 5.45779197212711 -2.4924900780113184 0.0
  endloop
endfacet
facet normal 0.0 0.0 -1.0
  outer loop
    vertex 5.45779197212711 -2.4924900780113184 0.0
    vertex 5.306597585986886 2.8000039393540423 0.0
    vertex 5.591184175268715 2.176846232103845 0.0
  endloop
endfacet
facet normal 0.0 0.0 -1.0
  outer loop
    vertex 5.45779197212711 -2.4924900780113184 0.0
    vertex 5.591184175268715 2.176846232103845 0.0
    vertex 5.706339097770921 -1.8541019662496845 0.0
  endloop
endfacet
facet normal 0.0 0.0 -1.0
  outer loop
    vertex 5.706339097770921 -1.8541019662496845 0.0
    vertex 5.591184175268715 2.176846232103845 0.0
    vertex 5.802881128211743 1.5253100051609205 0.0
  endloop
endfacet
facet normal 0.0 0.0 -1.0
  outer loop
    vertex 5.706339097770921 -1.8541019662496845 0.0
    vertex 5.802881128211743 1.5253100051609205 0.0
    vertex 5.880495366554361 -1.1915427998744732 0.0
  endloop
endfacet
facet normal 0.0 0.0 -1.0
  outer loop
    vertex 5.880495366554361 -1.1915427998744732 0.0
    vertex 5.802881128211743 1.5253100051609205 0.0
    vertex 5.938928651285597 0.85388902963971 0.0
  endloop
endfacet
facet normal 0.0 0.0 -1.0
  outer loop
    vertex 5.880495366554361 -1.1915427998744732 0.0
    vertex 5.938928651285597 0.85388902963971 0.0
    vertex 5.977990385176149 -0.513450050873039 0.0
  endloop
endfacet
facet normal 0.0 0.0 -1.0
  outer loop
    vertex 5.977990385176149 -0.513450050873039 0.0
    vertex 5.938928651285597 0.85388902963971 0.0
    vertex 5.997553156969135 0.1713363047621768 0.0
  endloop
endfacet
facet normal 0.0 0.0 -1.0
  outer loop
    vertex -3.0 3.67394039744206e-16 0.0
    vertex -2.6473266074593287 -5.384390572148149 0.0
    vertex -3.243844904733589 -5.047521196987084 0.0
  endloop
endfacet
facet normal 0.0 0.0 -1.0
  outer loop
    vertex -2.6473266074593287 -5.384390572148149 0.0
    vertex -3.0 3.67394039744206e-16 0.0
    vertex -2.9344428022014166 -0.6237350724532772 0.0
  endloop
endfacet
facet normal 0.0 0.0 -1.0
  outer loop
    vertex -2.6473266074593287 -5.384390572148149 0.0
    vertex -2.9344428022014166 -0.6237350724532772 0.0
    vertex -2.740636372927803 -1.2202099292273996 0.0
  endloop
endfacet
facet normal 0.0 0.0 -1.0
  outer loop
    vertex -2.6473266074593287 -5.384390572148149 0.0
    vertex -2.740636372927803 -1.2202099292273996 0.0
    vertex -2.427050983124842 -1.763355756877419 0.0
  endloop
endfacet
facet normal 0.0 0.0 -1.0
  outer loop
    vertex -2.6473266074593287 -5.384390572148149 0.0
    vertex -2.427050983124842 -1.763355756877419 0.0
    vertex -2.016296359292583 -5.651066181837146 0.0
  endloop
endfacet
facet normal 0.0 0.0 -1.0
  outer loop
    vertex -2.016296359292583 -5.651066181837146 0.0
    vertex -2.427050983124842 -1.763355756877419 0.0
    vertex -2.007391819076575 -2.229434476432182 0.0
  endloop
endfacet
facet normal 0.0 0.0 -1.0
  outer loop
    vertex -2.016296359292583 -5.651066181837146 0.0
    vertex -2.007391819076575 -2.229434476432182 0.0
    vertex -1.35898060455459 -5.844071501654 0.0
  endloop
endfacet
facet normal 0.0 0.0 -1.0
  outer loop
    vertex -1.35898060455459 -5.844071501654 0.0
    vertex -2.007391819076575 -2.229434476432182 0.0
    vertex -1.5000000000000013 -2.5980762113533156 0.0
  endloop
endfacet
facet normal 0.0 0.0 -1.0
  outer loop
    vertex -1.35898060455459 -5.844071501654 0.0
    vertex -1.5000000000000013 -2.5980762113533156 0.0
    vertex -0.9270509831248426 -2.8531695488854605 0.0
  endloop
endfacet
facet normal 0.0 0.0 -1.0
  outer loop
    vertex -1.35898060455459 -5.844071501654 0.0
    vertex -0.9270509831248426 -2.8531695488854605 0.0
    vertex -0.6839484593432491 -5.960890412091301 0.0
  endloop
endfacet
facet normal 0.0 0.0 -1.0
  outer loop
    vertex -0.6839484593432491 -5.960890412091301 0.0
    vertex -0.9270509831248426 -2.8531695488854605 0.0
    vertex -0.3135853898029627 -2.98356568610482 0.0
  endloop
endfacet
facet normal 0.0 0.0 -1.0
  outer loop
    vertex -0.6839484593432491 -5.960890412091301 0.0
    vertex -0.3135853898029627 -2.98356568610482 0.0
    vertex 0.0 -6.0 0.0
  endloop
endfacet
facet normal 0.0 0.0 -1.0
  outer loop
    vertex 0.0 -6.0 0.0
    vertex -0.3135853898029627 -2.98356568610482 0.0
    vertex 0.3135853898029589 -2.9835656861048205 0.0
  endloop
endfacet
facet normal 0.0 0.0 -1.0
  outer loop
    vertex 0.0 -6.0 0.0
    vertex 0.3135853898029589 -2.9835656861048205 0.0
    vertex 0.6839484593432437 -5.960890412091301 0.0
  endloop
endfacet
facet normal 0.0 0.0 -1.0
  outer loop
    vertex 0.6839484593432437 -5.960890412091301 0.0
    vertex 0.3135853898029589 -2.9835656861048205 0.0
    vertex 0.9270509831248416 -2.853169548885461 0.0
  endloop
endfacet
facet normal 0.0 0.0 -1.0
  outer loop
    vertex 0.6839484593432437 -5.960890412091301 0.0
    vertex 0.9270509831248416 -2.853169548885461 0.0
    vertex 1.3589806045545862 -5.844071501654001 0.0
  endloop
endfacet
facet normal 0.0 0.0 -1.0
  outer loop
    vertex 1.3589806045545862 -5.844071501654001 0.0
    vertex 0.9270509831248416 -2.853169548885461 0.0
    vertex 1.499999999999998 -2.5980762113533173 0.0
  endloop
endfacet
facet normal 0.0 0.0 -1.0
  outer loop
    vertex 1.3589806045545862 -5.844071501654001 0.0
    vertex 1.499999999999998 -2.5980762113533173 0.0
    vertex 2.0162963592925807 -5.651066181837148 0.0
  endloop
endfacet
facet normal 0.0 0.0 -1.0
  outer loop
    vertex 2.0162963592925807 -5.651066181837148 0.0
    vertex 1.499999999999998 -2.5980762113533173 0.0
    vertex 2.007391819076573 -2.229434476432184 0.0
  endloop
endfacet
facet normal 0.0 0.0 -1.0
  outer loop
    vertex 2.0162963592925807 -5.651066181837148 0.0
    vertex 2.007391819076573 -2.229434476432184 0.0
    vertex 2.4270509831248415 -1.76335575687742 0.0
  endloop
endfacet
facet normal 0.0 0.0 -1.0
  outer loop
    vertex 2.0162963592925807 -5.651066181837148 0.0
    vertex 2.4270509831248415 -1.76335575687742 0.0
    vertex 2.647326607459328 -5.38439057214815 0.0
  endloop
endfacet
facet normal 0.0 0.0 -1.0
  outer loop
    vertex 2.647326607459328 -5.38439057214815 0.0
    vertex 2.4270509831248415 -1.76335575687742 0.0
    vertex 2.7406363729278014 -1.220209929227403 0.0
  endloop
endfacet
facet normal 0.0 0.0 -1.0
  outer loop
    vertex 2.647326607459328 -5.38439057214815 0.0
    vertex 2.7406363729278014 -1.220209929227403 0.0
    vertex 3.243844904733586 -5.047521196987087 0.0
  endloop
endfacet
facet normal 0.0 0.0 -1.0
  outer loop
    vertex 3.243844904733586 -5.047521196987087 0.0
    vertex 2.7406363729278014 -1.220209929227403 0.0
    vertex 2.9344428022014166 -0.6237350724532796 0.0
  endloop
endfacet
facet normal 0.0 0.0 -1.0
  outer loop
    vertex 3.243844904733586 -5.047521196987087 0.0
    vertex 2.9344428022014166 -0.6237350724532796 0.0
    vertex 3.0 0.0 0.0
  endloop
endfacet
facet normal -0.0 -0.0 1.0
  outer loop
    vertex -2.6473266074593287 -5.384390572148149 9.0
    vertex -3.0 3.67394039744206e-16 9.0
    vertex -3.243844904733589 -5.047521196987084 9.0
  endloop
endfacet
facet normal -0.0 -0.0 1.0
  outer loop
    vertex -3.0 3.67394039744206e-16 9.0
    vertex -2.6473266074593287 -5.384390572148149 9.0
    vertex -2.9344428022014166 -0.6237350724532772 9.0
  endloop
endfacet
facet normal -0.0 -0.0 1.0
  outer loop
    vertex -2.9344428022014166 -0.6237350724532772 9.0
    vertex -2.6473266074593287 -5.384390572148149 9.0
    vertex -2.740636372927803 -1.2202099292273996 9.0
  endloop
endfacet
facet normal -0.0 -0.0 1.0
  outer loop
    vertex -2.740636372927803 -1.2202099292273996 9.0
    vertex -2.6473266074593287 -5.384390572148149 9.0
    vertex -2.427050983124842 -1.763355756877419 9.0
  endloop
endfacet
facet normal -0.0 -0.0 1.0
  outer loop
    vertex -2.427050983124842 -1.763355756877419 9.0
    vertex -2.6473266074593287 -5.384390572148149 9.0
    vertex -2.016296359292583 -5.651066181837146 9.0
  endloop
endfacet
facet normal -0.0 -0.0 1.0
  outer loop
    vertex -2.427050983124842 -1.763355756877419 9.0
    vertex -2.016296359292583 -5.651066181837146 9.0
    vertex -2.007391819076575 -2.229434476432182 9.0
  endloop
endfacet
facet normal -0.0 -0.0 1.0
  outer loop
    vertex -2.007391819076575 -2.229434476432182 9.0
    vertex -2.016296359292583 -5.651066181837146 9.0
    vertex -1.35898060455459 -5.844071501654 9.0
  endloop
endfacet
facet normal -0.0 -0.0 1.0
  outer loop
    vertex -2.007391819076575 -2.229434476432182 9.0
    vertex -1.35898060455459 -5.844071501654 9.0
    vertex -1.5000000000000013 -2.5980762113533156 9.0
  endloop
endfacet
facet normal -0.0 -0.0 1.0
  outer loop
    vertex -1.5000000000000013 -2.5980762113533156 9.0
    vertex -1.35898060455459 -5.844071501654 9.0
    vertex -0.9270509831248426 -2.8531695488854605 9.0
  endloop
endfacet
facet normal -0.0 -0.0 1.0
  outer loop
    vertex -0.9270509831248426 -2.8531695488854605 9.0
    vertex -1.35898060455459 -5.844071501654 9.0
    vertex -0.6839484593432491 -5.960890412091301 9.0
  endloop
endfacet
facet normal -0.0 -0.0 1.0
  outer loop
    vertex -0.9270509831248426 -2.8531695488854605 9.0
    vertex -0.6839484593432491 -5.960890412091301 9.0
    vertex -0.3135853898029627 -2.98356568610482 9.0
  endloop
endfacet
facet normal -0.0 -0.0 1.0
  outer loop
    vertex -0.3135853898029627 -2.98356568610482 9.0
    vertex -0.6839484593432491 -5.960890412091301 9.0
    vertex 0.0 -6.0 9.0
  endloop
endfacet
facet normal -0.0 -0.0 1.0
  outer loop
    vertex -0.3135853898029627 -2.98356568610482 9.0
    vertex 0.0 -6.0 9.0
    vertex 0.3135853898029589 -2.9835656861048205 9.0
  endloop
endfacet
facet normal -0.0 -0.0 1.0
  outer loop
    vertex 0.3135853898029589 -2.9835656861048205 9.0
    vertex 0.0 -6.0 9.0
    vertex 0.6839484593432437 -5.960890412091301 9.0
  endloop
endfacet
facet normal -0.0 -0.0 1.0
  outer loop
    vertex 0.3135853898029589 -2.9835656861048205 9.0
    vertex 0.6839484593432437 -5.960890412091301 9.0
    vertex 0.9270509831248416 -2.853169548885461 9.0
  endloop
endfacet
facet normal -0.0 -0.0 1.0
  outer loop
    vertex 0.9270509831248416 -2.853169548885461 9.0
    vertex 0.6839484593432437 -5.960890412091301 9.0
    vertex 1.3589806045545862 -5.844071501654001 9.0
  endloop
endfacet
facet normal -0.0 -0.0 1.0
  outer loop
    vertex 0.9270509831248416 -2.853169548885461 9.0
    vertex 1.3589806045545862 -5.844071501654001 9.0
    vertex 1.499999999999998 -2.5980762113533173 9.0
  endloop
endfacet
facet normal -0.0 -0.0 1.0
  outer loop
    vertex 1.499999999999998 -2.5980762113533173 9.0
    vertex 1.3589806045545862 -5.844071501654001 9.0
    vertex 2.0162963592925807 -5.651066181837148 9.0
  endloop
endfacet
facet normal -0.0 -0.0 1.0
  outer loop
    vertex 1.499999999999998 -2.5980762113533173 9.0
    vertex 2.0162963592925807 -5.651066181837148 9.0
    vertex 2.007391819076573 -2.229434476432184 9.0
  endloop
endfacet
facet normal -0.0 -0.0 1.0
  outer loop
    vertex 2.007391819076573 -2.229434476432184 9.0
    vertex 2.0162963592925807 -5.651066181837148 9.0
    vertex 2.4270509831248415 -1.76335575687742 9.0
  endloop
endfacet
facet normal -0.0 -0.0 1.0
  outer loop
    vertex 2.4270509831248415 -1.76335575687742 9.0
    vertex 2.0162963592925807 -5.651066181837148 9.0
    vertex 2.647326607459328 -5.38439057214815 9.0
  endloop
endfacet
facet normal -0.0 -0.0 1.0
  outer loop
    vertex 2.4270509831248415 -1.76335575687742 9.0
    vertex 2.647326607459328 -5.38439057214815 9.0
    vertex 2.7406363729278014 -1.220209929227403 9.0
  endloop
endfacet
facet normal -0.0 -0.0 1.0
  outer loop
    vertex 2.7406363729278014 -1.220209929227403 9.0
    vertex 2.647326607459328 -5.38439057214815 9.0
    vertex 3.243844904733586 -5.047521196987087 9.0
  endloop
endfacet
facet normal -0.0 -0.0 1.0
  outer loop
    vertex 2.7406363729278014 -1.220209929227403 9.0
    vertex 3.243844904733586 -5.047521196987087 9.0
    vertex 2.9344428022014166 -0.6237350724532796 9.0
  endloop
endfacet
facet normal -0.0 -0.0 1.0
  outer loop
    vertex 2.9344428022014166 -0.6237350724532796 9.0
    vertex 3.243844904733586 -5.047521196987087 9.0
    vertex 3.0 0.0 9.0
  endloop
endfacet
facet normal -0.0 -0.0 1.0
  outer loop
    vertex -5.977990385176149 -0.513450050873035 9.0
    vertex -5.938928651285596 0.8538890296397113 9.0
    vertex -5.997553156969135 0.17133630476217956 9.0
  endloop
endfacet
facet normal -0.0 -0.0 1.0
  outer loop
    vertex -5.938928651285596 0.8538890296397113 9.0
    vertex -5.977990385176149 -0.513450050873035 9.0
    vertex -5.880495366554362 -1.1915427998744679 9.0
  endloop
endfacet
facet normal -0.0 -0.0 1.0
  outer loop
    vertex -5.938928651285596 0.8538890296397113 9.0
    vertex -5.880495366554362 -1.1915427998744679 9.0
    vertex -5.802881128211742 1.5253100051609259 9.0
  endloop
endfacet
facet normal -0.0 -0.0 1.0
  outer loop
    vertex -5.802881128211742 1.5253100051609259 9.0
    vertex -5.880495366554362 -1.1915427998744679 9.0
    vertex -5.706339097770922 -1.8541019662496832 9.0
  endloop
endfacet
facet normal -0.0 -0.0 1.0
  outer loop
    vertex -5.802881128211742 1.5253100051609259 9.0
    vertex -5.706339097770922 -1.8541019662496832 9.0
    vertex -5.5911841752687135 2.1768462321038484 9.0
  endloop
endfacet
facet normal -0.0 -0.0 1.0
  outer loop
    vertex -5.5911841752687135 2.1768462321038484 9.0
    vertex -5.706339097770922 -1.8541019662496832 9.0
    vertex -5.4577919721271115 -2.492490078011316 9.0
  endloop
endfacet
facet normal -0.0 -0.0 1.0
  outer loop
    vertex -5.5911841752687135 2.1768462321038484 9.0
    vertex -5.4577919721271115 -2.492490078011316 9.0
    vertex -5.306597585986885 2.800003939354043 9.0
  endloop
endfacet
facet normal -0.0 -0.0 1.0
  outer loop
    vertex -5.306597585986885 2.800003939354043 9.0
    vertex -5.4577919721271115 -2.492490078011316 9.0
    vertex -5.138094181509536 -3.098384769833767 9.0
  endloop
endfacet
facet normal -0.0 -0.0 1.0
  outer loop
    vertex -5.306597585986885 2.800003939354043 9.0
    vertex -5.138094181509536 -3.098384769833767 9.0
    vertex -4.952831381776644 3.3866593132006146 9.0
  endloop
endfacet
facet normal -0.0 -0.0 1.0
  outer loop
    vertex -4.952831381776644 3.3866593132006146 9.0
    vertex -5.138094181509536 -3.098384769833767 9.0
    vertex -4.751413475533655 -3.663887277812624 9.0
  endloop
endfacet
facet normal -0.0 -0.0 1.0
  outer loop
    vertex -4.952831381776644 3.3866593132006146 9.0
    vertex -4.751413475533655 -3.663887277812624 9.0
    vertex -4.53449744612555 3.929164403671711 9.0
  endloop
endfacet
facet normal -0.0 -0.0 1.0
  outer loop
    vertex -4.53449744612555 3.929164403671711 9.0
    vertex -4.751413475533655 -3.663887277812624 9.0
    vertex -4.302790828553782 -4.181625411931758 9.0
  endloop
endfacet
facet normal -0.0 -0.0 1.0
  outer loop
    vertex -4.53449744612555 3.929164403671711 9.0
    vertex -4.302790828553782 -4.181625411931758 9.0
    vertex -4.057049401644115 4.42044682725843 9.0
  endloop
endfacet
facet normal -0.0 -0.0 1.0
  outer loop
    vertex -4.057049401644115 4.42044682725843 9.0
    vertex -4.302790828553782 -4.181625411931758 9.0
    vertex -3.798074722853225 -4.644849663834492 9.0
  endloop
endfacet
facet normal -0.0 -0.0 1.0
  outer loop
    vertex -4.057049401644115 4.42044682725843 9.0
    vertex -3.798074722853225 -4.644849663834492 9.0
    vertex -3.526711513754838 4.854101966249684 9.0
  endloop
endfacet
facet normal -0.0 -0.0 1.0
  outer loop
    vertex -3.526711513754838 4.854101966249684 9.0
    vertex -3.798074722853225 -4.644849663834492 9.0
    vertex -3.243844904733589 -5.047521196987084 9.0
  endloop
endfacet
facet normal -0.0 -0.0 1.0
  outer loop
    vertex -3.526711513754838 4.854101966249684 9.0
    vertex -3.243844904733589 -5.047521196987084 9.0
    vertex -2.950397547873621 5.2244764627186635 9.0
  endloop
endfacet
facet normal -0.0 -0.0 1.0
  outer loop
    vertex -2.950397547873621 5.2244764627186635 9.0
    vertex -3.243844904733589 -5.047521196987084 9.0
    vertex -3.0 3.67394039744206e-16 9.0
  endloop
endfacet
facet normal -0.0 -0.0 1.0
  outer loop
    vertex -2.950397547873621 5.2244764627186635 9.0
    vertex -3.0 3.67394039744206e-16 9.0
    vertex -2.9344428022014166 0.6237350724532792 9.0
  endloop
endfacet
facet normal -0.0 -0.0 1.0
  outer loop
    vertex -2.950397547873621 5.2244764627186635 9.0
    vertex -2.9344428022014166 0.6237350724532792 9.0
    vertex -2.3356206379043463 5.526741918689102 9.0
  endloop
endfacet
facet normal -0.0 -0.0 1.0
  outer loop
    vertex -2.3356206379043463 5.526741918689102 9.0
    vertex -2.9344428022014166 0.6237350724532792 9.0
    vertex -2.740636372927802 1.2202099292274013 9.0
  endloop
endfacet
facet normal -0.0 -0.0 1.0
  outer loop
    vertex -2.3356206379043463 5.526741918689102 9.0
    vertex -2.740636372927802 1.2202099292274013 9.0
    vertex -2.4270509831248415 1.7633557568774196 9.0
  endloop
endfacet
facet normal -0.0 -0.0 1.0
  outer loop
    vertex -2.3356206379043463 5.526741918689102 9.0
    vertex -2.4270509831248415 1.7633557568774196 9.0
    vertex -2.0073918190765734 2.2294344764321834 9.0
  endloop
endfacet
facet normal -0.0 -0.0 1.0
  outer loop
    vertex -2.3356206379043463 5.526741918689102 9.0
    vertex -2.0073918190765734 2.2294344764321834 9.0
    vertex -1.6903953410485766 5.756957841686984 9.0
  endloop
endfacet
facet normal -0.0 -0.0 1.0
  outer loop
    vertex -1.6903953410485766 5.756957841686984 9.0
    vertex -2.0073918190765734 2.2294344764321834 9.0
    vertex -1.4999999999999991 2.598076211353316 9.0
  endloop
endfacet
facet normal -0.0 -0.0 1.0
  outer loop
    vertex -1.6903953410485766 5.756957841686984 9.0
    vertex -1.4999999999999991 2.598076211353316 9.0
    vertex -1.02313315579574 5.912123015086158 9.0
  endloop
endfacet
facet normal -0.0 -0.0 1.0
  outer loop
    vertex -1.02313315579574 5.912123015086158 9.0
    vertex -1.4999999999999991 2.598076211353316 9.0
    vertex -0.9270509831248419 2.853169548885461 9.0
  endloop
endfacet
facet normal -0.0 -0.0 1.0
  outer loop
    vertex -1.02313315579574 5.912123015086158 9.0
    vertex -0.9270509831248419 2.853169548885461 9.0
    vertex -0.3425328651766064 5.990214623556813 9.0
  endloop
endfacet
facet normal -0.0 -0.0 1.0
  outer loop
    vertex -0.3425328651766064 5.990214623556813 9.0
    vertex -0.9270509831248419 2.853169548885461 9.0
    vertex -0.31358538980295997 2.9835656861048205 9.0
  endloop
endfacet
facet normal -0.0 -0.0 1.0
  outer loop
    vertex -0.3425328651766064 5.990214623556813 9.0
    vertex -0.31358538980295997 2.9835656861048205 9.0
    vertex 0.3425328651766106 5.990214623556813 9.0
  endloop
endfacet
facet normal -0.0 -0.0 1.0
  outer loop
    vertex 0.3425328651766106 5.990214623556813 9.0
    vertex -0.31358538980295997 2.9835656861048205 9.0
    vertex 0.313585389802961 2.98356568610482 9.0
  endloop
endfacet
facet normal -0.0 -0.0 1.0
  outer loop
    vertex 0.3425328651766106 5.990214623556813 9.0
    vertex 0.313585389802961 2.98356568610482 9.0
    vertex 0.9270509831248422 2.8531695488854605 9.0
  endloop
endfacet
facet normal -0.0 -0.0 1.0
  outer loop
    vertex 0.3425328651766106 5.990214623556813 9.0
    vertex 0.9270509831248422 2.8531695488854605 9.0
    vertex 1.0231331557957437 5.9121230150861575 9.0
  endloop
endfacet
facet normal -0.0 -0.0 1.0
  outer loop
    vertex 1.0231331557957437 5.9121230150861575 9.0
    vertex 0.9270509831248422 2.8531695488854605 9.0
    vertex 1.5000000000000002 2.5980762113533156 9.0
  endloop
endfacet
facet normal -0.0 -0.0 1.0
  outer loop
    vertex 1.0231331557957437 5.9121230150861575 9.0
    vertex 1.5000000000000002 2.5980762113533156 9.0
    vertex 1.6903953410485806 5.756957841686983 9.0
  endloop
endfacet
facet normal -0.0 -0.0 1.0
  outer loop
    vertex 1.6903953410485806 5.756957841686983 9.0
    vertex 1.5000000000000002 2.5980762113533156 9.0
    vertex 2.0073918190765747 2.2294344764321825 9.0
  endloop
endfacet
facet normal -0.0 -0.0 1.0
  outer loop
    vertex 1.6903953410485806 5.756957841686983 9.0
    vertex 2.0073918190765747 2.2294344764321825 9.0
    vertex 2.33562063790435 5.526741918689099 9.0
  endloop
endfacet
facet normal -0.0 -0.0 1.0
  outer loop
    vertex 2.33562063790435 5.526741918689099 9.0
    vertex 2.0073918190765747 2.2294344764321825 9.0
    vertex 2.427050983124842 1.7633557568774194 9.0
  endloop
endfacet
facet normal -0.0 -0.0 1.0
  outer loop
    vertex 2.33562063790435 5.526741918689099 9.0
    vertex 2.427050983124842 1.7633557568774194 9.0
    vertex 2.950397547873625 5.224476462718662 9.0
  endloop
endfacet
facet normal -0.0 -0.0 1.0
  outer loop
    vertex 2.950397547873625 5.224476462718662 9.0
    vertex 2.427050983124842 1.7633557568774194 9.0
    vertex 2.7406363729278023 1.2202099292274005 9.0
  endloop
endfacet
facet normal -0.0 -0.0 1.0
  outer loop
    vertex 2.950397547873625 5.224476462718662 9.0
    vertex 2.7406363729278023 1.2202099292274005 9.0
    vertex 2.9344428022014166 0.623735072453278 9.0
  endloop
endfacet
facet normal -0.0 -0.0 1.0
  outer loop
    vertex 2.950397547873625 5.224476462718662 9.0
    vertex 2.9344428022014166 0.623735072453278 9.0
    vertex 3.0 0.0 9.0
  endloop
endfacet
facet normal -0.0 -0.0 1.0
  outer loop
    vertex 2.950397547873625 5.224476462718662 9.0
    vertex 3.0 0.0 9.0
    vertex 3.5267115137548393 4.854101966249683 9.0
  endloop
endfacet
facet normal -0.0 -0.0 1.0
  outer loop
    vertex 3.5267115137548393 4.854101966249683 9.0
    vertex 3.0 0.0 9.0
    vertex 3.243844904733586 -5.047521196987087 9.0
  endloop
endfacet
facet normal -0.0 -0.0 1.0
  outer loop
    vertex 3.5267115137548393 4.854101966249683 9.0
    vertex 3.243844904733586 -5.047521196987087 9.0
    vertex 3.798074722853223 -4.644849663834495 9.0
  endloop
endfacet
facet normal -0.0 -0.0 1.0
  outer loop
    vertex 3.5267115137548393 4.854101966249683 9.0
    vertex 3.798074722853223 -4.644849663834495 9.0
    vertex 4.057049401644118 4.420446827258427 9.0
  endloop
endfacet
facet normal -0.0 -0.0 1.0
  outer loop
    vertex 4.057049401644118 4.420446827258427 9.0
    vertex 3.798074722853223 -4.644849663834495 9.0
    vertex 4.302790828553781 -4.18162541193176 9.0
  endloop
endfacet
facet normal -0.0 -0.0 1.0
  outer loop
    vertex 4.057049401644118 4.420446827258427 9.0
    vertex 4.302790828553781 -4.18162541193176 9.0
    vertex 4.53449744612555 3.9291644036717095 9.0
  endloop
endfacet
facet normal -0.0 -0.0 1.0
  outer loop
    vertex 4.53449744612555 3.9291644036717095 9.0
    vertex 4.302790828553781 -4.18162541193176 9.0
    vertex 4.751413475533651 -3.663887277812629 9.0
  endloop
endfacet
facet normal -0.0 -0.0 1.0
  outer loop
    vertex 4.53449744612555 3.9291644036717095 9.0
    vertex 4.751413475533651 -3.663887277812629 9.0
    vertex 4.952831381776646 3.3866593132006133 9.0
  endloop
endfacet
facet normal -0.0 -0.0 1.0
  outer loop
    vertex 4.952831381776646 3.3866593132006133 9.0
    vertex 4.751413475533651 -3.663887277812629 9.0
    vertex 5.138094181509534 -3.0983847698337716 9.0
  endloop
endfacet
facet normal -0.0 -0.0 1.0
  outer loop
    vertex 4.952831381776646 3.3866593132006133 9.0
    vertex 5.138094181509534 -3.0983847698337716 9.0
    vertex 5.306597585986886 2.8000039393540423 9.0
  endloop
endfacet
facet normal -0.0 -0.0 1.0
  outer loop
    vertex 5.306597585986886 2.8000039393540423 9.0
    vertex 5.138094181509534 -3.0983847698337716 9.0
    vertex 5.45779197212711 -2.4924900780113184 9.0
  endloop
endfacet
facet normal -0.0 -0.0 1.0
  outer loop
    vertex 5.306597585986886 2.8000039393540423 9.0
    vertex 5.45779197212711 -2.4924900780113184 9.0
    vertex 5.591184175268715 2.176846232103845 9.0
  endloop
endfacet
facet normal -0.0 -0.0 1.0
  outer loop
    vertex 5.591184175268715 2.176846232103845 9.0
    vertex 5.45779197212711 -2.4924900780113184 9.0
    vertex 5.706339097770921 -1.8541019662496845 9.0
  endloop
endfacet
facet normal -0.0 -0.0 1.0
  outer loop
    vertex 5.591184175268715 2.176846232103845 9.0
    vertex 5.706339097770921 -1.8541019662496845 9.0
    vertex 5.802881128211743 1.5253100051609205 9.0
  endloop
endfacet
facet normal -0.0 -0.0 1.0
  outer loop
    vertex 5.802881128211743 1.5253100051609205 9.0
    vertex 5.706339097770921 -1.8541019662496845 9.0
    vertex 5.880495366554361 -1.1915427998744732 9.0
  endloop
endfacet
facet normal -0.0 -0.0 1.0
  outer loop
    vertex 5.802881128211743 1.5253100051609205 9.0
    vertex 5.880495366554361 -1.1915427998744732 9.0
    vertex 5.938928651285597 0.85388902963971 9.0
  endloop
endfacet
facet normal -0.0 -0.0 1.0
  outer loop
    vertex 5.938928651285597 0.85388902963971 9.0
    vertex 5.880495366554361 -1.1915427998744732 9.0
    vertex 5.977990385176149 -0.513450050873039 9.0
  endloop
endfacet
facet normal -0.0 -0.0 1.0
  outer loop
    vertex 5.938928651285597 0.85388902963971 9.0
    vertex 5.977990385176149 -0.513450050873039 9.0
    vertex 5.997553156969135 0.1713363047621768 9.0
  endloop
endfacet
facet normal 0.38927010631739156 -0.9211236531148502 0.0
  outer loop
    vertex 2.647326607459328 -5.38439057214815 9.0
    vertex 2.0162963592925807 -5.651066181837148 0.0
    vertex 2.647326607459328 -5.38439057214815 0.0
  endloop
endfacet
facet normal 0.38927010631739156 -0.9211236531148502 0.0
  outer loop
    vertex 2.0162963592925807 -5.651066181837148 0.0
    vertex 2.647326607459328 -5.38439057214815 9.0
    vertex 2.0162963592925807 -5.651066181837148 9.0
  endloop
endfacet
facet normal 0.2817325568414289 -0.9594929736144977 0.0
  outer loop
    vertex 2.0162963592925807 -5.651066181837148 9.0
    vertex 1.3589806045545862 -5.844071501654001 0.0
    vertex 2.0162963592925807 -5.651066181837148 0.0
  endloop
endfacet
facet normal 0.2817325568414289 -0.9594929736144977 0.0
  outer loop
    vertex 1.3589806045545862 -5.844071501654001 0.0
    vertex 2.0162963592925807 -5.651066181837148 9.0
    vertex 1.3589806045545862 -5.844071501654001 9.0
  endloop
endfacet
facet normal 0.17052219263262455 -0.9853538358476929 0.0
  outer loop
    vertex 1.3589806045545862 -5.844071501654001 9.0
    vertex 0.6839484593432437 -5.960890412091301 0.0
    vertex 1.3589806045545862 -5.844071501654001 0.0
  endloop
endfacet
facet normal 0.17052219263262455 -0.9853538358476929 0.0
  outer loop
    vertex 0.6839484593432437 -5.960890412091301 0.0
    vertex 1.3589806045545862 -5.844071501654001 9.0
    vertex 0.6839484593432437 -5.960890412091301 9.0
  endloop
endfacet
facet normal 0.057088810862767764 -0.9983691039261359 0.0
  outer loop
    vertex 0.6839484593432437 -5.960890412091301 9.0
    vertex 0.0 -6.0 0.0
    vertex 0.6839484593432437 -5.960890412091301 0.0
  endloop
endfacet
facet normal 0.057088810862767764 -0.9983691039261359 0.0
  outer loop
    vertex 0.0 -6.0 0.0
    vertex 0.6839484593432437 -5.960890412091301 9.0
    vertex 0.0 -6.0 9.0
  endloop
endfacet
facet normal -0.05708881086276833 -0.9983691039261356 -0.0
  outer loop
    vertex 0.0 -6.0 9.0
    vertex -0.6839484593432491 -5.960890412091301 0.0
    vertex 0.0 -6.0 0.0
  endloop
endfacet
facet normal -0.05708881086276833 -0.9983691039261356 -0.0
  outer loop
    vertex -0.6839484593432491 -5.960890412091301 0.0
    vertex 0.0 -6.0 9.0
    vertex -0.6839484593432491 -5.960890412091301 9.0
  endloop
endfacet
facet normal -0.17052219263262494 -0.985353835847693 -0.0
  outer loop
    vertex -0.6839484593432491 -5.960890412091301 9.0
    vertex -1.35898060455459 -5.844071501654 0.0
    vertex -0.6839484593432491 -5.960890412091301 0.0
  endloop
endfacet
facet normal -0.17052219263262494 -0.985353835847693 -0.0
  outer loop
    vertex -1.35898060455459 -5.844071501654 0.0
    vertex -0.6839484593432491 -5.960890412091301 9.0
    vertex -1.35898060455459 -5.844071501654 9.0
  endloop
endfacet
facet normal -0.2817325568414304 -0.9594929736144971 -0.0
  outer loop
    vertex -1.35898060455459 -5.844071501654 9.0
    vertex -2.016296359292583 -5.651066181837146 0.0
    vertex -1.35898060455459 -5.844071501654 0.0
  endloop
endfacet
facet normal -0.2817325568414304 -0.9594929736144971 -0.0
  outer loop
    vertex -2.016296359292583 -5.651066181837146 0.0
    vertex -1.35898060455459 -5.844071501654 9.0
    vertex -2.016296359292583 -5.651066181837146 9.0
  endloop
endfacet
facet normal -0.38927010631739145 -0.9211236531148502 -0.0
  outer loop
    vertex -2.016296359292583 -5.651066181837146 9.0
    vertex -2.6473266074593287 -5.384390572148149 0.0
    vertex -2.016296359292583 -5.651066181837146 0.0
  endloop
endfacet
facet normal -0.38927010631739145 -0.9211236531148502 -0.0
  outer loop
    vertex -2.6473266074593287 -5.384390572148149 0.0
    vertex -2.016296359292583 -5.651066181837146 9.0
    vertex -2.6473266074593287 -5.384390572148149 9.0
  endloop
endfacet
facet normal -0.4917329246456042 -0.8707460771197771 -0.0
  outer loop
    vertex -2.6473266074593287 -5.384390572148149 9.0
    vertex -3.243844904733589 -5.047521196987084 0.0
    vertex -2.6473266074593287 -5.384390572148149 0.0
  endloop
endfacet
facet normal -0.4917329246456042 -0.8707460771197771 -0.0
  outer loop
    vertex -3.243844904733589 -5.047521196987084 0.0
    vertex -2.6473266074593287 -5.384390572148149 9.0
    vertex -3.243844904733589 -5.047521196987084 9.0
  endloop
endfacet
facet normal -0.5877852522924741 -0.8090169943749467 -0.0
  outer loop
    vertex -3.243844904733589 -5.047521196987084 9.0
    vertex -3.798074722853225 -4.644849663834492 0.0
    vertex -3.243844904733589 -5.047521196987084 0.0
  endloop
endfacet
facet normal -0.5877852522924741 -0.8090169943749467 -0.0
  outer loop
    vertex -3.798074722853225 -4.644849663834492 0.0
    vertex -3.243844904733589 -5.047521196987084 9.0
    vertex -3.798074722853225 -4.644849663834492 9.0
  endloop
endfacet
facet normal -0.6761749002740197 -0.7367411378764046 -0.0
  outer loop
    vertex -3.798074722853225 -4.644849663834492 9.0
    vertex -4.302790828553782 -4.181625411931758 0.0
    vertex -3.798074722853225 -4.644849663834492 0.0
  endloop
endfacet
facet normal -0.6761749002740197 -0.7367411378764046 -0.0
  outer loop
    vertex -4.302790828553782 -4.181625411931758 0.0
    vertex -3.798074722853225 -4.644849663834492 9.0
    vertex -4.302790828553782 -4.181625411931758 9.0
  endloop
endfacet
facet normal -0.7557495743542583 -0.6548607339452852 -0.0
  outer loop
    vertex -4.751413475533655 -3.663887277812624 9.0
    vertex -4.302790828553782 -4.181625411931758 0.0
    vertex -4.302790828553782 -4.181625411931758 9.0
  endloop
endfacet
facet normal -0.7557495743542583 -0.6548607339452852 -0.0
  outer loop
    vertex -4.302790828553782 -4.181625411931758 0.0
    vertex -4.751413475533655 -3.663887277812624 9.0
    vertex -4.751413475533655 -3.663887277812624 0.0
  endloop
endfacet
facet normal -0.8254718969627746 -0.5644432188667683 -0.0
  outer loop
    vertex -5.138094181509536 -3.098384769833767 9.0
    vertex -4.751413475533655 -3.663887277812624 0.0
    vertex -4.751413475533655 -3.663887277812624 9.0
  endloop
endfacet
facet normal -0.8254718969627746 -0.5644432188667683 -0.0
  outer loop
    vertex -4.751413475533655 -3.663887277812624 0.0
    vertex -5.138094181509536 -3.098384769833767 9.0
    vertex -5.138094181509536 -3.098384769833767 0.0
  endloop
endfacet
facet normal -0.8844329309978144 -0.4666673232256736 -0.0
  outer loop
    vertex -5.4577919721271115 -2.492490078011316 9.0
    vertex -5.138094181509536 -3.098384769833767 0.0
    vertex -5.138094181509536 -3.098384769833767 9.0
  endloop
endfacet
facet normal -0.8844329309978144 -0.4666673232256736 -0.0
  outer loop
    vertex -5.138094181509536 -3.098384769833767 0.0
    vertex -5.4577919721271115 -2.492490078011316 9.0
    vertex -5.4577919721271115 -2.492490078011316 0.0
  endloop
endfacet
facet normal -0.9318640292114526 -0.36280770535064066 -0.0
  outer loop
    vertex -5.706339097770922 -1.8541019662496832 9.0
    vertex -5.4577919721271115 -2.492490078011316 0.0
    vertex -5.4577919721271115 -2.492490078011316 9.0
  endloop
endfacet
facet normal -0.9318640292114526 -0.36280770535064066 -0.0
  outer loop
    vertex -5.4577919721271115 -2.492490078011316 0.0
    vertex -5.706339097770922 -1.8541019662496832 9.0
    vertex -5.706339097770922 -1.8541019662496832 0.0
  endloop
endfacet
facet normal -0.9671468547019573 -0.2542183341934867 -0.0
  outer loop
    vertex -5.880495366554362 -1.1915427998744679 9.0
    vertex -5.706339097770922 -1.8541019662496832 0.0
    vertex -5.706339097770922 -1.8541019662496832 9.0
  endloop
endfacet
facet normal -0.9671468547019573 -0.2542183341934867 -0.0
  outer loop
    vertex -5.706339097770922 -1.8541019662496832 0.0
    vertex -5.880495366554362 -1.1915427998744679 9.0
    vertex -5.880495366554362 -1.1915427998744679 0.0
  endloop
endfacet
facet normal -0.9898214418809328 -0.14231483827328487 -0.0
  outer loop
    vertex -5.977990385176149 -0.513450050873035 9.0
    vertex -5.880495366554362 -1.1915427998744679 0.0
    vertex -5.880495366554362 -1.1915427998744679 9.0
  endloop
endfacet
facet normal -0.9898214418809328 -0.14231483827328487 -0.0
  outer loop
    vertex -5.880495366554362 -1.1915427998744679 0.0
    vertex -5.977990385176149 -0.513450050873035 9.0
    vertex -5.977990385176149 -0.513450050873035 0.0
  endloop
endfacet
facet normal -0.9995921928281892 -0.028556050793695387 -0.0
  outer loop
    vertex -5.997553156969135 0.17133630476217956 9.0
    vertex -5.977990385176149 -0.513450050873035 0.0
    vertex -5.977990385176149 -0.513450050873035 9.0
  endloop
endfacet
facet normal -0.9995921928281892 -0.028556050793695387 -0.0
  outer loop
    vertex -5.977990385176149 -0.513450050873035 0.0
    vertex -5.997553156969135 0.17133630476217956 9.0
    vertex -5.997553156969135 0.17133630476217956 0.0
  endloop
endfacet
facet normal -0.9963317308626914 0.08557500847884067 0.0
  outer loop
    vertex -5.938928651285596 0.8538890296397113 9.0
    vertex -5.997553156969135 0.17133630476217956 0.0
    vertex -5.997553156969135 0.17133630476217956 9.0
  endloop
endfacet
facet normal -0.9963317308626914 0.08557500847884067 0.0
  outer loop
    vertex -5.997553156969135 0.17133630476217956 0.0
    vertex -5.938928651285596 0.8538890296397113 9.0
    vertex -5.938928651285596 0.8538890296397113 0.0
  endloop
endfacet
facet normal -0.9800825610923934 0.19859046664574573 0.0
  outer loop
    vertex -5.802881128211742 1.5253100051609259 9.0
    vertex -5.938928651285596 0.8538890296397113 0.0
    vertex -5.938928651285596 0.8538890296397113 9.0
  endloop
endfacet
facet normal -0.9800825610923934 0.19859046664574573 0.0
  outer loop
    vertex -5.938928651285596 0.8538890296397113 0.0
    vertex -5.802881128211742 1.5253100051609259 9.0
    vertex -5.802881128211742 1.5253100051609259 0.0
  endloop
endfacet
facet normal -0.9510565162951536 0.30901699437494723 0.0
  outer loop
    vertex -5.5911841752687135 2.1768462321038484 9.0
    vertex -5.802881128211742 1.5253100051609259 0.0
    vertex -5.802881128211742 1.5253100051609259 9.0
  endloop
endfacet
facet normal -0.9510565162951536 0.30901699437494723 0.0
  outer loop
    vertex -5.802881128211742 1.5253100051609259 0.0
    vertex -5.5911841752687135 2.1768462321038484 9.0
    vertex -5.5911841752687135 2.1768462321038484 0.0
  endloop
endfacet
facet normal -0.9096319953545178 0.4154150130018877 0.0
  outer loop
    vertex -5.306597585986885 2.800003939354043 9.0
    vertex -5.5911841752687135 2.1768462321038484 0.0
    vertex -5.5911841752687135 2.1768462321038484 9.0
  endloop
endfacet
facet normal -0.9096319953545178 0.4154150130018877 0.0
  outer loop
    vertex -5.5911841752687135 2.1768462321038484 0.0
    vertex -5.306597585986885 2.800003939354043 9.0
    vertex -5.306597585986885 2.800003939354043 0.0
  endloop
endfacet
facet normal -0.8563490302515893 0.5163974616389618 0.0
  outer loop
    vertex -4.952831381776644 3.3866593132006146 9.0
    vertex -5.306597585986885 2.800003939354043 0.0
    vertex -5.306597585986885 2.800003939354043 9.0
  endloop
endfacet
facet normal -0.8563490302515893 0.5163974616389618 0.0
  outer loop
    vertex -5.306597585986885 2.800003939354043 0.0
    vertex -4.952831381776644 3.3866593132006146 9.0
    vertex -4.952831381776644 3.3866593132006146 0.0
  endloop
endfacet
facet normal -0.7919022459222753 0.6106478796354379 0.0
  outer loop
    vertex -4.53449744612555 3.929164403671711 9.0
    vertex -4.952831381776644 3.3866593132006146 0.0
    vertex -4.952831381776644 3.3866593132006146 9.0
  endloop
endfacet
facet normal -0.7919022459222753 0.6106478796354379 0.0
  outer loop
    vertex -4.952831381776644 3.3866593132006146 0.0
    vertex -4.53449744612555 3.929164403671711 9.0
    vertex -4.53449744612555 3.929164403671711 0.0
  endloop
endfacet
facet normal -0.7171318047589629 0.696937568655294 0.0
  outer loop
    vertex -4.057049401644115 4.42044682725843 9.0
    vertex -4.53449744612555 3.929164403671711 0.0
    vertex -4.53449744612555 3.929164403671711 9.0
  endloop
endfacet
facet normal -0.7171318047589629 0.696937568655294 0.0
  outer loop
    vertex -4.53449744612555 3.929164403671711 0.0
    vertex -4.057049401644115 4.42044682725843 9.0
    vertex -4.057049401644115 4.42044682725843 0.0
  endloop
endfacet
facet normal -0.6330124538088697 0.7741416106390832 0.0
  outer loop
    vertex -4.057049401644115 4.42044682725843 9.0
    vertex -3.526711513754838 4.854101966249684 0.0
    vertex -4.057049401644115 4.42044682725843 0.0
  endloop
endfacet
facet normal -0.6330124538088697 0.7741416106390832 0.0
  outer loop
    vertex -3.526711513754838 4.854101966249684 0.0
    vertex -4.057049401644115 4.42044682725843 9.0
    vertex -3.526711513754838 4.854101966249684 9.0
  endloop
endfacet
facet normal -0.5406408174555984 0.8412535328311808 0.0
  outer loop
    vertex -3.526711513754838 4.854101966249684 9.0
    vertex -2.950397547873621 5.2244764627186635 0.0
    vertex -3.526711513754838 4.854101966249684 0.0
  endloop
endfacet
facet normal -0.5406408174555984 0.8412535328311808 0.0
  outer loop
    vertex -2.950397547873621 5.2244764627186635 0.0
    vertex -3.526711513754838 4.854101966249684 9.0
    vertex -2.950397547873621 5.2244764627186635 9.0
  endloop
endfacet
facet normal -0.4412211012432212 0.8973984286913584 0.0
  outer loop
    vertex -2.950397547873621 5.2244764627186635 9.0
    vertex -2.3356206379043463 5.526741918689102 0.0
    vertex -2.950397547873621 5.2244764627186635 0.0
  endloop
endfacet
facet normal -0.4412211012432212 0.8973984286913584 0.0
  outer loop
    vertex -2.3356206379043463 5.526741918689102 0.0
    vertex -2.950397547873621 5.2244764627186635 9.0
    vertex -2.3356206379043463 5.526741918689102 9.0
  endloop
endfacet
facet normal -0.336049393215429 0.9418443636395253 0.0
  outer loop
    vertex -2.3356206379043463 5.526741918689102 9.0
    vertex -1.6903953410485766 5.756957841686984 0.0
    vertex -2.3356206379043463 5.526741918689102 0.0
  endloop
endfacet
facet normal -0.336049393215429 0.9418443636395253 0.0
  outer loop
    vertex -1.6903953410485766 5.756957841686984 0.0
    vertex -2.3356206379043463 5.526741918689102 9.0
    vertex -1.6903953410485766 5.756957841686984 9.0
  endloop
endfacet
facet normal -0.22649676742576397 0.9740119169423338 0.0
  outer loop
    vertex -1.6903953410485766 5.756957841686984 9.0
    vertex -1.02313315579574 5.912123015086158 0.0
    vertex -1.6903953410485766 5.756957841686984 0.0
  endloop
endfacet
facet normal -0.22649676742576397 0.9740119169423338 0.0
  outer loop
    vertex -1.02313315579574 5.912123015086158 0.0
    vertex -1.6903953410485766 5.756957841686984 9.0
    vertex -1.02313315579574 5.912123015086158 9.0
  endloop
endfacet
facet normal -0.11399140989054031 0.9934817353485503 0.0
  outer loop
    vertex -1.02313315579574 5.912123015086158 9.0
    vertex -0.3425328651766064 5.990214623556813 0.0
    vertex -1.02313315579574 5.912123015086158 0.0
  endloop
endfacet
facet normal -0.11399140989054031 0.9934817353485503 0.0
  outer loop
    vertex -0.3425328651766064 5.990214623556813 0.0
    vertex -1.02313315579574 5.912123015086158 9.0
    vertex -0.3425328651766064 5.990214623556813 9.0
  endloop
endfacet
facet normal -0.0 1.0 0.0
  outer loop
    vertex -0.3425328651766064 5.990214623556813 9.0
    vertex 0.3425328651766106 5.990214623556813 0.0
    vertex -0.3425328651766064 5.990214623556813 0.0
  endloop
endfacet
facet normal -0.0 1.0 0.0
  outer loop
    vertex 0.3425328651766106 5.990214623556813 0.0
    vertex -0.3425328651766064 5.990214623556813 9.0
    vertex 0.3425328651766106 5.990214623556813 9.0
  endloop
endfacet
facet normal 0.11399140989054134 0.9934817353485501 0.0
  outer loop
    vertex 0.3425328651766106 5.990214623556813 9.0
    vertex 1.0231331557957437 5.9121230150861575 0.0
    vertex 0.3425328651766106 5.990214623556813 0.0
  endloop
endfacet
facet normal 0.11399140989054134 0.9934817353485501 0.0
  outer loop
    vertex 1.0231331557957437 5.9121230150861575 0.0
    vertex 0.3425328651766106 5.990214623556813 9.0
    vertex 1.0231331557957437 5.9121230150861575 9.0
  endloop
endfacet
facet normal 0.22649676742576488 0.9740119169423335 0.0
  outer loop
    vertex 1.0231331557957437 5.9121230150861575 9.0
    vertex 1.6903953410485806 5.756957841686983 0.0
    vertex 1.0231331557957437 5.9121230150861575 0.0
  endloop
endfacet
facet normal 0.22649676742576488 0.9740119169423335 0.0
  outer loop
    vertex 1.6903953410485806 5.756957841686983 0.0
    vertex 1.0231331557957437 5.9121230150861575 9.0
    vertex 1.6903953410485806 5.756957841686983 9.0
  endloop
endfacet
facet normal 0.33604939321543004 0.9418443636395247 0.0
  outer loop
    vertex 1.6903953410485806 5.756957841686983 9.0
    vertex 2.33562063790435 5.526741918689099 0.0
    vertex 1.6903953410485806 5.756957841686983 0.0
  endloop
endfacet
facet normal 0.33604939321543004 0.9418443636395247 0.0
  outer loop
    vertex 2.33562063790435 5.526741918689099 0.0
    vertex 1.6903953410485806 5.756957841686983 9.0
    vertex 2.33562063790435 5.526741918689099 9.0
  endloop
endfacet
facet normal 0.4412211012432211 0.8973984286913587 0.0
  outer loop
    vertex 2.33562063790435 5.526741918689099 9.0
    vertex 2.950397547873625 5.224476462718662 0.0
    vertex 2.33562063790435 5.526741918689099 0.0
  endloop
endfacet
facet normal 0.4412211012432211 0.8973984286913587 0.0
  outer loop
    vertex 2.950397547873625 5.224476462718662 0.0
    vertex 2.33562063790435 5.526741918689099 9.0
    vertex 2.950397547873625 5.224476462718662 9.0
  endloop
endfacet
facet normal 0.5406408174555986 0.8412535328311805 0.0
  outer loop
    vertex 2.950397547873625 5.224476462718662 9.0
    vertex 3.5267115137548393 4.854101966249683 0.0
    vertex 2.950397547873625 5.224476462718662 0.0
  endloop
endfacet
facet normal 0.5406408174555986 0.8412535328311805 0.0
  outer loop
    vertex 3.5267115137548393 4.854101966249683 0.0
    vertex 2.950397547873625 5.224476462718662 9.0
    vertex 3.5267115137548393 4.854101966249683 9.0
  endloop
endfacet
facet normal 0.6330124538088705 0.7741416106390824 0.0
  outer loop
    vertex 3.5267115137548393 4.854101966249683 9.0
    vertex 4.057049401644118 4.420446827258427 0.0
    vertex 3.5267115137548393 4.854101966249683 0.0
  endloop
endfacet
facet normal 0.6330124538088705 0.7741416106390824 0.0
  outer loop
    vertex 4.057049401644118 4.420446827258427 0.0
    vertex 3.5267115137548393 4.854101966249683 9.0
    vertex 4.057049401644118 4.420446827258427 9.0
  endloop
endfacet
facet normal 0.7171318047589635 0.6969375686552935 0.0
  outer loop
    vertex 4.057049401644118 4.420446827258427 0.0
    vertex 4.53449744612555 3.9291644036717095 9.0
    vertex 4.53449744612555 3.9291644036717095 0.0
  endloop
endfacet
facet normal 0.7171318047589635 0.6969375686552935 0.0
  outer loop
    vertex 4.53449744612555 3.9291644036717095 9.0
    vertex 4.057049401644118 4.420446827258427 0.0
    vertex 4.057049401644118 4.420446827258427 9.0
  endloop
endfacet
facet normal 0.7919022459222748 0.6106478796354385 0.0
  outer loop
    vertex 4.53449744612555 3.9291644036717095 0.0
    vertex 4.952831381776646 3.3866593132006133 9.0
    vertex 4.952831381776646 3.3866593132006133 0.0
  endloop
endfacet
facet normal 0.7919022459222748 0.6106478796354385 0.0
  outer loop
    vertex 4.952831381776646 3.3866593132006133 9.0
    vertex 4.53449744612555 3.9291644036717095 0.0
    vertex 4.53449744612555 3.9291644036717095 9.0
  endloop
endfacet
facet normal 0.8563490302515894 0.5163974616389615 0.0
  outer loop
    vertex 4.952831381776646 3.3866593132006133 0.0
    vertex 5.306597585986886 2.8000039393540423 9.0
    vertex 5.306597585986886 2.8000039393540423 0.0
  endloop
endfacet
facet normal 0.8563490302515894 0.5163974616389615 0.0
  outer loop
    vertex 5.306597585986886 2.8000039393540423 9.0
    vertex 4.952831381776646 3.3866593132006133 0.0
    vertex 4.952831381776646 3.3866593132006133 9.0
  endloop
endfacet
facet normal 0.9096319953545182 0.4154150130018871 0.0
  outer loop
    vertex 5.306597585986886 2.8000039393540423 0.0
    vertex 5.591184175268715 2.176846232103845 9.0
    vertex 5.591184175268715 2.176846232103845 0.0
  endloop
endfacet
facet normal 0.9096319953545182 0.4154150130018871 0.0
  outer loop
    vertex 5.591184175268715 2.176846232103845 9.0
    vertex 5.306597585986886 2.8000039393540423 0.0
    vertex 5.306597585986886 2.8000039393540423 9.0
  endloop
endfacet
facet normal 0.9510565162951539 0.30901699437494645 0.0
  outer loop
    vertex 5.591184175268715 2.176846232103845 0.0
    vertex 5.802881128211743 1.5253100051609205 9.0
    vertex 5.802881128211743 1.5253100051609205 0.0
  endloop
endfacet
facet normal 0.9510565162951539 0.30901699437494645 0.0
  outer loop
    vertex 5.802881128211743 1.5253100051609205 9.0
    vertex 5.591184175268715 2.176846232103845 0.0
    vertex 5.591184175268715 2.176846232103845 9.0
  endloop
endfacet
facet normal 0.9800825610923933 0.1985904666457459 0.0
  outer loop
    vertex 5.802881128211743 1.5253100051609205 0.0
    vertex 5.938928651285597 0.85388902963971 9.0
    vertex 5.938928651285597 0.85388902963971 0.0
  endloop
endfacet
facet normal 0.9800825610923933 0.1985904666457459 0.0
  outer loop
    vertex 5.938928651285597 0.85388902963971 9.0
    vertex 5.802881128211743 1.5253100051609205 0.0
    vertex 5.802881128211743 1.5253100051609205 9.0
  endloop
endfacet
facet normal 0.9963317308626914 0.08557500847883945 0.0
  outer loop
    vertex 5.938928651285597 0.85388902963971 0.0
    vertex 5.997553156969135 0.1713363047621768 9.0
    vertex 5.997553156969135 0.1713363047621768 0.0
  endloop
endfacet
facet normal 0.9963317308626914 0.08557500847883945 0.0
  outer loop
    vertex 5.997553156969135 0.1713363047621768 9.0
    vertex 5.938928651285597 0.85388902963971 0.0
    vertex 5.938928651285597 0.85388902963971 9.0
  endloop
endfacet
facet normal 0.9995921928281893 -0.02855605079369637 0.0
  outer loop
    vertex 5.997553156969135 0.1713363047621768 0.0
    vertex 5.977990385176149 -0.513450050873039 9.0
    vertex 5.977990385176149 -0.513450050873039 0.0
  endloop
endfacet
facet normal 0.9995921928281893 -0.02855605079369637 0.0
  outer loop
    vertex 5.977990385176149 -0.513450050873039 9.0
    vertex 5.997553156969135 0.1713363047621768 0.0
    vertex 5.997553156969135 0.1713363047621768 9.0
  endloop
endfacet
facet normal 0.9898214418809329 -0.14231483827328462 0.0
  outer loop
    vertex 5.977990385176149 -0.513450050873039 0.0
    vertex 5.880495366554361 -1.1915427998744732 9.0
    vertex 5.880495366554361 -1.1915427998744732 0.0
  endloop
endfacet
facet normal 0.9898214418809329 -0.14231483827328462 0.0
  outer loop
    vertex 5.880495366554361 -1.1915427998744732 9.0
    vertex 5.977990385176149 -0.513450050873039 0.0
    vertex 5.977990385176149 -0.513450050873039 9.0
  endloop
endfacet
facet normal 0.9671468547019568 -0.2542183341934881 0.0
  outer loop
    vertex 5.880495366554361 -1.1915427998744732 0.0
    vertex 5.706339097770921 -1.8541019662496845 9.0
    vertex 5.706339097770921 -1.8541019662496845 0.0
  endloop
endfacet
facet normal 0.9671468547019568 -0.2542183341934881 0.0
  outer loop
    vertex 5.706339097770921 -1.8541019662496845 9.0
    vertex 5.880495366554361 -1.1915427998744732 0.0
    vertex 5.880495366554361 -1.1915427998744732 9.0
  endloop
endfacet
facet normal 0.9318640292114524 -0.362807705350641 0.0
  outer loop
    vertex 5.706339097770921 -1.8541019662496845 0.0
    vertex 5.45779197212711 -2.4924900780113184 9.0
    vertex 5.45779197212711 -2.4924900780113184 0.0
  endloop
endfacet
facet normal 0.9318640292114524 -0.362807705350641 0.0
  outer loop
    vertex 5.45779197212711 -2.4924900780113184 9.0
    vertex 5.706339097770921 -1.8541019662496845 0.0
    vertex 5.706339097770921 -1.8541019662496845 9.0
  endloop
endfacet
facet normal 0.8844329309978145 -0.4666673232256733 0.0
  outer loop
    vertex 5.45779197212711 -2.4924900780113184 0.0
    vertex 5.138094181509534 -3.0983847698337716 9.0
    vertex 5.138094181509534 -3.0983847698337716 0.0
  endloop
endfacet
facet normal 0.8844329309978145 -0.4666673232256733 0.0
  outer loop
    vertex 5.138094181509534 -3.0983847698337716 9.0
    vertex 5.45779197212711 -2.4924900780113184 0.0
    vertex 5.45779197212711 -2.4924900780113184 9.0
  endloop
endfacet
facet normal 0.825471896962774 -0.5644432188667693 0.0
  outer loop
    vertex 5.138094181509534 -3.0983847698337716 0.0
    vertex 4.751413475533651 -3.663887277812629 9.0
    vertex 4.751413475533651 -3.663887277812629 0.0
  endloop
endfacet
facet normal 0.825471896962774 -0.5644432188667693 0.0
  outer loop
    vertex 4.751413475533651 -3.663887277812629 9.0
    vertex 5.138094181509534 -3.0983847698337716 0.0
    vertex 5.138094181509534 -3.0983847698337716 9.0
  endloop
endfacet
facet normal 0.755749574354258 -0.6548607339452854 0.0
  outer loop
    vertex 4.751413475533651 -3.663887277812629 0.0
    vertex 4.302790828553781 -4.18162541193176 9.0
    vertex 4.302790828553781 -4.18162541193176 0.0
  endloop
endfacet
facet normal 0.755749574354258 -0.6548607339452854 0.0
  outer loop
    vertex 4.302790828553781 -4.18162541193176 9.0
    vertex 4.751413475533651 -3.663887277812629 0.0
    vertex 4.751413475533651 -3.663887277812629 9.0
  endloop
endfacet
facet normal 0.6761749002740198 -0.7367411378764045 0.0
  outer loop
    vertex 4.302790828553781 -4.18162541193176 9.0
    vertex 3.798074722853223 -4.644849663834495 0.0
    vertex 4.302790828553781 -4.18162541193176 0.0
  endloop
endfacet
facet normal 0.6761749002740198 -0.7367411378764045 0.0
  outer loop
    vertex 3.798074722853223 -4.644849663834495 0.0
    vertex 4.302790828553781 -4.18162541193176 9.0
    vertex 3.798074722853223 -4.644849663834495 9.0
  endloop
endfacet
facet normal 0.5877852522924732 -0.8090169943749475 0.0
  outer loop
    vertex 3.798074722853223 -4.644849663834495 9.0
    vertex 3.243844904733586 -5.047521196987087 0.0
    vertex 3.798074722853223 -4.644849663834495 0.0
  endloop
endfacet
facet normal 0.5877852522924732 -0.8090169943749475 0.0
  outer loop
    vertex 3.243844904733586 -5.047521196987087 0.0
    vertex 3.798074722853223 -4.644849663834495 9.0
    vertex 3.243844904733586 -5.047521196987087 9.0
  endloop
endfacet
facet normal 0.4917329246456034 -0.8707460771197776 0.0
  outer loop
    vertex 3.243844904733586 -5.047521196987087 9.0
    vertex 2.647326607459328 -5.38439057214815 0.0
    vertex 3.243844904733586 -5.047521196987087 0.0
  endloop
endfacet
facet normal 0.4917329246456034 -0.8707460771197776 0.0
  outer loop
    vertex 2.647326607459328 -5.38439057214815 0.0
    vertex 3.243844904733586 -5.047521196987087 9.0
    vertex 2.647326607459328 -5.38439057214815 9.0
  endloop
endfacet
facet normal 0.4067366430758007 -0.9135454576426009 0.0
  outer loop
    vertex -0.9270509831248419 2.853169548885461 9.0
    vertex -1.4999999999999991 2.598076211353316 0.0
    vertex -0.9270509831248419 2.853169548885461 0.0
  endloop
endfacet
facet normal 0.4067366430758007 -0.9135454576426009 0.0
  outer loop
    vertex -1.4999999999999991 2.598076211353316 0.0
    vertex -0.9270509831248419 2.853169548885461 9.0
    vertex -1.4999999999999991 2.598076211353316 9.0
  endloop
endfacet
facet normal 0.5877852522924727 -0.8090169943749478 0.0
  outer loop
    vertex -1.4999999999999991 2.598076211353316 9.0
    vertex -2.0073918190765734 2.2294344764321834 0.0
    vertex -1.4999999999999991 2.598076211353316 0.0
  endloop
endfacet
facet normal 0.5877852522924727 -0.8090169943749478 0.0
  outer loop
    vertex -2.0073918190765734 2.2294344764321834 0.0
    vertex -1.4999999999999991 2.598076211353316 9.0
    vertex -2.0073918190765734 2.2294344764321834 9.0
  endloop
endfacet
facet normal 0.7431448254773942 -0.6691306063588583 0.0
  outer loop
    vertex -2.0073918190765734 2.2294344764321834 0.0
    vertex -2.4270509831248415 1.7633557568774196 9.0
    vertex -2.4270509831248415 1.7633557568774196 0.0
  endloop
endfacet
facet normal 0.7431448254773942 -0.6691306063588583 0.0
  outer loop
    vertex -2.4270509831248415 1.7633557568774196 9.0
    vertex -2.0073918190765734 2.2294344764321834 0.0
    vertex -2.0073918190765734 2.2294344764321834 9.0
  endloop
endfacet
facet normal 0.8660254037844386 -0.5000000000000002 0.0
  outer loop
    vertex -2.4270509831248415 1.7633557568774196 0.0
    vertex -2.740636372927802 1.2202099292274013 9.0
    vertex -2.740636372927802 1.2202099292274013 0.0
  endloop
endfacet
facet normal 0.8660254037844386 -0.5000000000000002 0.0
  outer loop
    vertex -2.740636372927802 1.2202099292274013 9.0
    vertex -2.4270509831248415 1.7633557568774196 0.0
    vertex -2.4270509831248415 1.7633557568774196 9.0
  endloop
endfacet
facet normal 0.9510565162951534 -0.309016994374948 0.0
  outer loop
    vertex -2.740636372927802 1.2202099292274013 0.0
    vertex -2.9344428022014166 0.6237350724532792 9.0
    vertex -2.9344428022014166 0.6237350724532792 0.0
  endloop
endfacet
facet normal 0.9510565162951534 -0.309016994374948 0.0
  outer loop
    vertex -2.9344428022014166 0.6237350724532792 9.0
    vertex -2.740636372927802 1.2202099292274013 0.0
    vertex -2.740636372927802 1.2202099292274013 9.0
  endloop
endfacet
facet normal 0.9945218953682734 -0.10452846326765379 0.0
  outer loop
    vertex -2.9344428022014166 0.6237350724532792 0.0
    vertex -3.0 3.67394039744206e-16 9.0
    vertex -3.0 3.67394039744206e-16 0.0
  endloop
endfacet
facet normal 0.9945218953682734 -0.10452846326765379 0.0
  outer loop
    vertex -3.0 3.67394039744206e-16 9.0
    vertex -2.9344428022014166 0.6237350724532792 0.0
    vertex -2.9344428022014166 0.6237350724532792 9.0
  endloop
endfacet
facet normal 0.9945218953682734 0.10452846326765344 0.0
  outer loop
    vertex -3.0 3.67394039744206e-16 0.0
    vertex -2.9344428022014166 -0.6237350724532772 9.0
    vertex -2.9344428022014166 -0.6237350724532772 0.0
  endloop
endfacet
facet normal 0.9945218953682734 0.10452846326765344 0.0
  outer loop
    vertex -2.9344428022014166 -0.6237350724532772 9.0
    vertex -3.0 3.67394039744206e-16 0.0
    vertex -3.0 3.67394039744206e-16 9.0
  endloop
endfacet
facet normal 0.9510565162951539 0.309016994374947 0.0
  outer loop
    vertex -2.9344428022014166 -0.6237350724532772 0.0
    vertex -2.740636372927803 -1.2202099292273996 9.0
    vertex -2.740636372927803 -1.2202099292273996 0.0
  endloop
endfacet
facet normal 0.9510565162951539 0.309016994374947 0.0
  outer loop
    vertex -2.740636372927803 -1.2202099292273996 9.0
    vertex -2.9344428022014166 -0.6237350724532772 0.0
    vertex -2.9344428022014166 -0.6237350724532772 9.0
  endloop
endfacet
facet normal 0.8660254037844387 0.5000000000000002 0.0
  outer loop
    vertex -2.740636372927803 -1.2202099292273996 0.0
    vertex -2.427050983124842 -1.763355756877419 9.0
    vertex -2.427050983124842 -1.763355756877419 0.0
  endloop
endfacet
facet normal 0.8660254037844387 0.5000000000000002 0.0
  outer loop
    vertex -2.427050983124842 -1.763355756877419 9.0
    vertex -2.740636372927803 -1.2202099292273996 0.0
    vertex -2.740636372927803 -1.2202099292273996 9.0
  endloop
endfacet
facet normal 0.7431448254773948 0.6691306063588576 0.0
  outer loop
    vertex -2.427050983124842 -1.763355756877419 0.0
    vertex -2.007391819076575 -2.229434476432182 9.0
    vertex -2.007391819076575 -2.229434476432182 0.0
  endloop
endfacet
facet normal 0.7431448254773948 0.6691306063588576 0.0
  outer loop
    vertex -2.007391819076575 -2.229434476432182 9.0
    vertex -2.427050983124842 -1.763355756877419 0.0
    vertex -2.427050983124842 -1.763355756877419 9.0
  endloop
endfacet
facet normal 0.5877852522924741 0.8090169943749469 0.0
  outer loop
    vertex -2.007391819076575 -2.229434476432182 9.0
    vertex -1.5000000000000013 -2.5980762113533156 0.0
    vertex -2.007391819076575 -2.229434476432182 0.0
  endloop
endfacet
facet normal 0.5877852522924741 0.8090169943749469 0.0
  outer loop
    vertex -1.5000000000000013 -2.5980762113533156 0.0
    vertex -2.007391819076575 -2.229434476432182 9.0
    vertex -1.5000000000000013 -2.5980762113533156 9.0
  endloop
endfacet
facet normal 0.4067366430757999 0.9135454576426012 0.0
  outer loop
    vertex -1.5000000000000013 -2.5980762113533156 9.0
    vertex -0.9270509831248426 -2.8531695488854605 0.0
    vertex -1.5000000000000013 -2.5980762113533156 0.0
  endloop
endfacet
facet normal 0.4067366430757999 0.9135454576426012 0.0
  outer loop
    vertex -0.9270509831248426 -2.8531695488854605 0.0
    vertex -1.5000000000000013 -2.5980762113533156 9.0
    vertex -0.9270509831248426 -2.8531695488854605 9.0
  endloop
endfacet
facet normal 0.20791169081776015 0.9781476007338055 0.0
  outer loop
    vertex -0.9270509831248426 -2.8531695488854605 9.0
    vertex -0.3135853898029627 -2.98356568610482 0.0
    vertex -0.9270509831248426 -2.8531695488854605 0.0
  endloop
endfacet
facet normal 0.20791169081776015 0.9781476007338055 0.0
  outer loop
    vertex -0.3135853898029627 -2.98356568610482 0.0
    vertex -0.9270509831248426 -2.8531695488854605 9.0
    vertex -0.3135853898029627 -2.98356568610482 9.0
  endloop
endfacet
facet normal 5.620411884303275e-16 1.0 0.0
  outer loop
    vertex -0.3135853898029627 -2.98356568610482 9.0
    vertex 0.3135853898029589 -2.9835656861048205 0.0
    vertex -0.3135853898029627 -2.98356568610482 0.0
  endloop
endfacet
facet normal 5.620411884303275e-16 1.0 0.0
  outer loop
    vertex 0.3135853898029589 -2.9835656861048205 0.0
    vertex -0.3135853898029627 -2.98356568610482 9.0
    vertex 0.3135853898029589 -2.9835656861048205 9.0
  endloop
endfacet
facet normal -0.20791169081775926 0.9781476007338057 0.0
  outer loop
    vertex 0.3135853898029589 -2.9835656861048205 9.0
    vertex 0.9270509831248416 -2.853169548885461 0.0
    vertex 0.3135853898029589 -2.9835656861048205 0.0
  endloop
endfacet
facet normal -0.20791169081775926 0.9781476007338057 0.0
  outer loop
    vertex 0.9270509831248416 -2.853169548885461 0.0
    vertex 0.3135853898029589 -2.9835656861048205 9.0
    vertex 0.9270509831248416 -2.853169548885461 9.0
  endloop
endfacet
facet normal -0.40673664307579976 0.9135454576426011 0.0
  outer loop
    vertex 0.9270509831248416 -2.853169548885461 9.0
    vertex 1.499999999999998 -2.5980762113533173 0.0
    vertex 0.9270509831248416 -2.853169548885461 0.0
  endloop
endfacet
facet normal -0.40673664307579976 0.9135454576426011 0.0
  outer loop
    vertex 1.499999999999998 -2.5980762113533173 0.0
    vertex 0.9270509831248416 -2.853169548885461 9.0
    vertex 1.499999999999998 -2.5980762113533173 9.0
  endloop
endfacet
facet normal -0.5877852522924727 0.8090169943749477 0.0
  outer loop
    vertex 1.499999999999998 -2.5980762113533173 9.0
    vertex 2.007391819076573 -2.229434476432184 0.0
    vertex 1.499999999999998 -2.5980762113533173 0.0
  endloop
endfacet
facet normal -0.5877852522924727 0.8090169943749477 0.0
  outer loop
    vertex 2.007391819076573 -2.229434476432184 0.0
    vertex 1.499999999999998 -2.5980762113533173 9.0
    vertex 2.007391819076573 -2.229434476432184 9.0
  endloop
endfacet
facet normal -0.7431448254773939 0.6691306063588586 0.0
  outer loop
    vertex 2.4270509831248415 -1.76335575687742 9.0
    vertex 2.007391819076573 -2.229434476432184 0.0
    vertex 2.007391819076573 -2.229434476432184 9.0
  endloop
endfacet
facet normal -0.7431448254773939 0.6691306063588586 0.0
  outer loop
    vertex 2.007391819076573 -2.229434476432184 0.0
    vertex 2.4270509831248415 -1.76335575687742 9.0
    vertex 2.4270509831248415 -1.76335575687742 0.0
  endloop
endfacet
facet normal -0.8660254037844386 0.5000000000000001 0.0
  outer loop
    vertex 2.7406363729278014 -1.220209929227403 9.0
    vertex 2.4270509831248415 -1.76335575687742 0.0
    vertex 2.4270509831248415 -1.76335575687742 9.0
  endloop
endfacet
facet normal -0.8660254037844386 0.5000000000000001 0.0
  outer loop
    vertex 2.4270509831248415 -1.76335575687742 0.0
    vertex 2.7406363729278014 -1.220209929227403 9.0
    vertex 2.7406363729278014 -1.220209929227403 0.0
  endloop
endfacet
facet normal -0.9510565162951532 0.3090169943749486 0.0
  outer loop
    vertex 2.9344428022014166 -0.6237350724532796 9.0
    vertex 2.7406363729278014 -1.220209929227403 0.0
    vertex 2.7406363729278014 -1.220209929227403 9.0
  endloop
endfacet
facet normal -0.9510565162951532 0.3090169943749486 0.0
  outer loop
    vertex 2.7406363729278014 -1.220209929227403 0.0
    vertex 2.9344428022014166 -0.6237350724532796 9.0
    vertex 2.9344428022014166 -0.6237350724532796 0.0
  endloop
endfacet
facet normal -0.9945218953682733 0.10452846326765364 0.0
  outer loop
    vertex 3.0 0.0 9.0
    vertex 2.9344428022014166 -0.6237350724532796 0.0
    vertex 2.9344428022014166 -0.6237350724532796 9.0
  endloop
endfacet
facet normal -0.9945218953682733 0.10452846326765364 0.0
  outer loop
    vertex 2.9344428022014166 -0.6237350724532796 0.0
    vertex 3.0 0.0 9.0
    vertex 3.0 0.0 0.0
  endloop
endfacet
facet normal -0.9945218953682734 -0.10452846326765337 -0.0
  outer loop
    vertex 2.9344428022014166 0.623735072453278 9.0
    vertex 3.0 0.0 0.0
    vertex 3.0 0.0 9.0
  endloop
endfacet
facet normal -0.9945218953682734 -0.10452846326765337 -0.0
  outer loop
    vertex 3.0 0.0 0.0
    vertex 2.9344428022014166 0.623735072453278 9.0
    vertex 2.9344428022014166 0.623735072453278 0.0
  endloop
endfacet
facet normal -0.9510565162951536 -0.3090169943749479 -0.0
  outer loop
    vertex 2.7406363729278023 1.2202099292274005 9.0
    vertex 2.9344428022014166 0.623735072453278 0.0
    vertex 2.9344428022014166 0.623735072453278 9.0
  endloop
endfacet
facet normal -0.9510565162951536 -0.3090169943749479 -0.0
  outer loop
    vertex 2.9344428022014166 0.623735072453278 0.0
    vertex 2.7406363729278023 1.2202099292274005 9.0
    vertex 2.7406363729278023 1.2202099292274005 0.0
  endloop
endfacet
facet normal -0.8660254037844388 -0.4999999999999999 -0.0
  outer loop
    vertex 2.427050983124842 1.7633557568774194 9.0
    vertex 2.7406363729278023 1.2202099292274005 0.0
    vertex 2.7406363729278023 1.2202099292274005 9.0
  endloop
endfacet
facet normal -0.8660254037844388 -0.4999999999999999 -0.0
  outer loop
    vertex 2.7406363729278023 1.2202099292274005 0.0
    vertex 2.427050983124842 1.7633557568774194 9.0
    vertex 2.427050983124842 1.7633557568774194 0.0
  endloop
endfacet
facet normal -0.7431448254773944 -0.6691306063588582 -0.0
  outer loop
    vertex 2.0073918190765747 2.2294344764321825 9.0
    vertex 2.427050983124842 1.7633557568774194 0.0
    vertex 2.427050983124842 1.7633557568774194 9.0
  endloop
endfacet
facet normal -0.7431448254773944 -0.6691306063588582 -0.0
  outer loop
    vertex 2.427050983124842 1.7633557568774194 0.0
    vertex 2.0073918190765747 2.2294344764321825 9.0
    vertex 2.0073918190765747 2.2294344764321825 0.0
  endloop
endfacet
facet normal -0.5877852522924735 -0.8090169943749472 -0.0
  outer loop
    vertex 2.0073918190765747 2.2294344764321825 9.0
    vertex 1.5000000000000002 2.5980762113533156 0.0
    vertex 2.0073918190765747 2.2294344764321825 0.0
  endloop
endfacet
facet normal -0.5877852522924735 -0.8090169943749472 -0.0
  outer loop
    vertex 1.5000000000000002 2.5980762113533156 0.0
    vertex 2.0073918190765747 2.2294344764321825 9.0
    vertex 1.5000000000000002 2.5980762113533156 9.0
  endloop
endfacet
facet normal -0.40673664307580026 -0.913545457642601 -0.0
  outer loop
    vertex 1.5000000000000002 2.5980762113533156 9.0
    vertex 0.9270509831248422 2.8531695488854605 0.0
    vertex 1.5000000000000002 2.5980762113533156 0.0
  endloop
endfacet
facet normal -0.40673664307580026 -0.913545457642601 -0.0
  outer loop
    vertex 0.9270509831248422 2.8531695488854605 0.0
    vertex 1.5000000000000002 2.5980762113533156 9.0
    vertex 0.9270509831248422 2.8531695488854605 9.0
  endloop
endfacet
facet normal -0.20791169081775976 -0.9781476007338057 -0.0
  outer loop
    vertex 0.9270509831248422 2.8531695488854605 9.0
    vertex 0.313585389802961 2.98356568610482 0.0
    vertex 0.9270509831248422 2.8531695488854605 0.0
  endloop
endfacet
facet normal -0.20791169081775976 -0.9781476007338057 -0.0
  outer loop
    vertex 0.313585389802961 2.98356568610482 0.0
    vertex 0.9270509831248422 2.8531695488854605 9.0
    vertex 0.313585389802961 2.98356568610482 9.0
  endloop
endfacet
facet normal -5.620411884303282e-16 -1.0 -0.0
  outer loop
    vertex 0.313585389802961 2.98356568610482 9.0
    vertex -0.31358538980295997 2.9835656861048205 0.0
    vertex 0.313585389802961 2.98356568610482 0.0
  endloop
endfacet
facet normal -5.620411884303282e-16 -1.0 -0.0
  outer loop
    vertex -0.31358538980295997 2.9835656861048205 0.0
    vertex 0.313585389802961 2.98356568610482 9.0
    vertex -0.31358538980295997 2.9835656861048205 9.0
  endloop
endfacet
facet normal 0.20791169081775948 -0.9781476007338056 0.0
  outer loop
    vertex -0.31358538980295997 2.9835656861048205 9.0
    vertex -0.9270509831248419 2.853169548885461 0.0
    vertex -0.31358538980295997 2.9835656861048205 0.0
  endloop
endfacet
facet normal 0.20791169081775948 -0.9781476007338056 0.0
  outer loop
    vertex -0.9270509831248419 2.853169548885461 0.0
    vertex -0.31358538980295997 2.9835656861048205 9.0
    vertex -0.9270509831248419 2.853169548885461 9.0
  endloop
endfacet
endsolid RotationGearDummy
